<?xml version="1.0" standalone="no"?><!DOCTYPE svg PUBLIC "-//W3C//DTD SVG 1.1//EN" "http://www.w3.org/Graphics/SVG/1.1/DTD/svg11.dtd"><svg t="1575010025476" class="icon" viewBox="0 0 1024 1024" version="1.1" xmlns="http://www.w3.org/2000/svg" p-id="7266" xmlns:xlink="http://www.w3.org/1999/xlink" width="34" height="34" fill="#01CAFD"><defs><style type="text/css"></style></defs><path d="M517.40212 1022.200351c-55.789104 0-109.778559-8.998243-161.968366-26.994727-41.391916-14.397188-79.184534-34.193322-115.177504-57.588752l-8.998243-5.398946-8.998243 5.398946c-23.395431 14.397188-44.991213 26.994728-62.987697 35.99297-39.592267 19.796134-68.386643 28.794376-91.782074 30.594024-17.996485 0-35.99297-7.198594-48.59051-19.796133-12.59754-12.59754-17.996485-30.594025-17.996485-50.390158 3.599297-37.792619 26.994728-89.982425 73.785589-160.168717l5.398946-8.998243-5.398946-8.998242c-39.592267-73.785589-61.188049-156.56942-61.188049-241.1529 0-278.945518 224.956063-505.70123 503.901582-505.70123 73.785589 0 145.771529 16.196837 212.358523 46.790861 14.397188 7.198594 21.595782 25.195079 14.397188 39.592267-5.398946 10.797891-16.196837 17.996485-26.994727 17.996485-3.599297 0-8.998243-1.799649-12.59754-3.599297-59.388401-26.994728-122.376098-41.391916-187.163444-41.391916-244.752197 0-442.713533 199.760984-442.713533 446.31283 0 80.984183 21.595782 160.168717 62.987698 228.55536 3.599297 5.398946 3.599297 10.797891 3.599297 16.196837 0 12.59754-5.398946 28.794376-12.59754 39.592267-39.592267 61.188049-55.789104 97.181019-62.987698 116.977153l-10.797891 30.594024 30.594025-8.998242c12.59754-3.599297 26.994728-10.797891 43.191564-19.796134 32.393673-16.196837 68.386643-39.592267 111.578208-68.386643 70.186292-48.59051 185.363796-138.572935 331.135325-282.544816 149.370826-147.571178 239.353251-262.748682 289.743409-331.135325 43.191564-61.188049 73.785589-115.177504 84.58348-147.571177l10.797891-30.594025-30.594025 8.998243c-17.996485 5.398946-39.592267 16.196837-64.787346 28.794376-3.599297 1.799649-8.998243 3.599297-14.397188 3.599297-10.797891 0-21.595782-5.398946-26.994727-16.196837-7.198594-14.397188-1.799649-32.393673 12.597539-41.391915 46.790861-25.195079 82.783831-39.592267 111.578207-41.391916h3.599297c16.196837 0 32.393673 7.198594 44.991213 17.996485 12.59754 12.59754 19.796134 30.594025 19.796134 48.59051-1.799649 26.994728-12.59754 61.188049-39.592267 106.179262-8.998243 16.196837-17.996485 32.393673-30.594025 50.390158l-5.398946 8.998242 5.398946 8.998243c50.390158 80.984183 77.384886 174.565905 77.384886 271.746924 0 68.386643-12.59754 134.973638-39.592267 197.961336-25.195079 61.188049-61.188049 115.177504-107.978911 161.968365-46.790861 46.790861-100.780316 82.783831-160.168717 107.978911-61.188049 28.794376-125.975395 41.391916-194.362038 41.391915z m365.328646-712.660808c-70.186292 93.581722-161.968366 196.161687-268.147627 302.340949-134.973638 133.173989-242.952548 219.557118-309.539543 268.147628l-21.595782 16.196836 23.39543 12.59754c64.787346 35.99297 134.973638 53.989455 210.558876 53.989455 118.776801 0 230.355009-46.790861 313.13884-131.374341 82.783831-84.58348 129.574692-196.161687 129.574692-314.938489 0-71.98594-16.196837-140.372583-48.59051-203.360281l-12.597539-23.395431-16.196837 19.796134z m-219.557118 518.29877c-30.594025 0-55.789104-25.195079-55.789103-55.789104 0-30.594025 25.195079-55.789104 55.789103-55.789104 30.594025 0 55.789104 25.195079 55.789104 55.789104 0 30.594025-25.195079 55.789104-55.789104 55.789104z m-385.12478-219.557118c-41.391916 0-75.585237-34.193322-75.585237-75.585237s34.193322-75.585237 75.585237-75.585237c41.391916 0 75.585237 34.193322 75.585237 75.585237s-34.193322 75.585237-75.585237 75.585237z m0-113.377856c-21.595782 0-37.792619 17.996485-37.792618 37.792619 0 21.595782 17.996485 37.792619 37.792618 37.792618 21.595782 0 37.792619-17.996485 37.792619-37.792618 1.799649-21.595782-16.196837-37.792619-37.792619-37.792619z m187.163445-115.177504c-53.989455 0-97.181019-44.991213-97.18102-98.980668s43.191564-98.980668 97.18102-98.980668c53.989455 0 97.181019 44.991213 97.181019 98.980668 1.799649 53.989455-43.191564 98.980668-97.181019 98.980668z m0-160.168717c-34.193322 0-61.188049 26.994728-61.188049 61.188049s26.994728 61.188049 61.188049 61.188049 61.188049-26.994728 61.188049-61.188049c1.799649-34.193322-26.994728-61.188049-61.188049-61.188049z" fill="" p-id="7267"></path></svg>