<?xml version="1.0" standalone="no"?><!DOCTYPE svg PUBLIC "-//W3C//DTD SVG 1.1//EN" "http://www.w3.org/Graphics/SVG/1.1/DTD/svg11.dtd"><svg t="1575009877482" class="icon" viewBox="0 0 1024 1024" version="1.1" xmlns="http://www.w3.org/2000/svg" p-id="5231" xmlns:xlink="http://www.w3.org/1999/xlink" width="44" height="44" fill="#A9A9A9"><defs><style type="text/css"></style></defs><path d="M630.6 570.7c-27.7-19.4-58-34.8-89.8-45.6 67.4-40.4 108.8-112.6 108.8-190.9 0-123.1-101.4-223.2-225.9-223.2-124.7 0-226.1 100.2-226.1 223.4 0 41.9 11.9 82.8 34.3 118.2 19.1 30 44.9 55.1 75.4 73.1-32.5 11-63.1 26.5-91.3 46.2-30.7 21.5-57.6 47.4-80.3 77.1C88.8 710.7 64 784.2 64 861.5c0 14.4 11.9 26.1 26.5 26.1s26.5-11.7 26.5-26.1c0-80.5 31.8-156.6 89.6-213.8 57.6-57.2 133.9-88.6 214.7-88.7 2.7 0.2 5.4 0 8.1-0.6l2.1-0.4c78.7 1.6 152.6 32.9 208.9 88.7 57.7 57.3 89.5 133.2 89.5 213.8 0 14.4 11.9 26.1 26.5 26.1s26.5-11.7 26.5-26.1c0-77.3-24.8-150.8-71.8-212.6-22.7-29.8-49.8-55.7-80.5-77.2z m-207-65.4c-95.4 0-173.1-76.8-173.1-171.1 0-94.4 77.7-171.1 173.1-171.1 95.4 0 173.1 76.8 173.1 171.1 0.1 94.3-77.6 171.1-173.1 171.1z m480.3 109.8c-34-48.4-79.8-84.8-133.1-105.7 23.6-16.3 43.3-38.1 57.6-63.6 16.6-29.5 25.3-63 25.3-97.2 0-106.6-83.5-193.2-186.1-193.2-14.6 0-26.5 11.7-26.5 26.2 0 14.4 11.9 26.1 26.5 26.1 73.5 0 133.2 63.3 133.2 140.9 0 77.8-59.8 141-133.2 141-14.6 0-26.5 11.7-26.5 26.1v0.1c0 14.4 11.9 26.1 26.5 26.1 132.1 0 239.6 113.2 239.6 252.4 0 14.4 11.9 26.1 26.5 26.1s26.5-11.7 26.5-26.1c-0.1-64.9-19.5-126.8-56.3-179.2z" p-id="5232"></path></svg>