<?xml version="1.0" standalone="no"?><!DOCTYPE svg PUBLIC "-//W3C//DTD SVG 1.1//EN" "http://www.w3.org/Graphics/SVG/1.1/DTD/svg11.dtd"><svg t="1575009839437" class="icon" viewBox="0 0 1024 1024" version="1.1" xmlns="http://www.w3.org/2000/svg" p-id="4353" xmlns:xlink="http://www.w3.org/1999/xlink" width="44" height="44"><defs><style type="text/css"></style></defs><path d="M192.030384 1019.302006v-225.03973C88.908508 708.127379 30.118579 584.525528 30.118579 452.549686c0-61.258926 12.529985-120.710855 37.164955-176.669787a450.438459 450.438459 0 0 1 101.074879-143.840828 470.014435 470.014435 0 0 1 149.38282-96.677883A483.08542 483.08542 0 0 1 500.254014 0.00223c63.246924 0 124.68685 11.926986 182.512781 35.357958a470.014435 470.014435 0 0 1 149.38282 96.677883 450.559459 450.559459 0 0 1 101.074879 143.841828c24.69597 56.017933 37.164955 115.409861 37.164955 176.669787a435.259477 435.259477 0 0 1-37.164955 176.609788A450.499459 450.499459 0 0 1 832.149615 773.060301a470.014435 470.014435 0 0 1-149.38282 96.616884C624.939864 893.170157 563.499938 905.096143 500.254014 905.096143H483.630034L192.030384 1019.302006zM500.194014 60.237158c-109.748868 0-212.870744 40.959951-290.333651 115.289861-77.100907 73.969911-119.506856 172.152793-119.506857 276.539668 0 118.663857 55.416933 229.676724 151.913818 304.489634l13.853983 10.720987v160.346808l213.593744-83.6669h30.478963c109.747868 0 212.870744-40.959951 290.333651-115.289861 77.099907-73.908911 119.505856-172.152793 119.505857-276.479668 0-104.447875-42.404949-202.630757-119.505857-276.599668-77.462907-74.389911-180.585783-115.349861-290.333651-115.349861z" fill="#01CAFD" p-id="4354"></path><path d="M740.712725 406.950741H311.597241c-19.756976 0-35.779957-13.491984-35.779957-30.116964 0-16.68498 16.022981-30.117964 35.779957-30.117963h429.115484c19.756976 0 35.719957 13.432984 35.719957 30.117963 0 16.62498-15.962981 30.116964-35.719957 30.116964zM626.506862 592.656518h-314.909621c-19.756976 0-35.779957-13.492984-35.779957-30.117964s16.022981-30.117964 35.779957-30.117964h314.849622c19.756976 0 35.719957 13.492984 35.719957 30.117964s-15.962981 30.117964-35.719957 30.117964z" fill="#01CAFD" p-id="4355"></path></svg>