<?xml version="1.0" standalone="no"?><!DOCTYPE svg PUBLIC "-//W3C//DTD SVG 1.1//EN" "http://www.w3.org/Graphics/SVG/1.1/DTD/svg11.dtd"><svg t="1575010309750" class="icon" viewBox="0 0 1024 1024" version="1.1" xmlns="http://www.w3.org/2000/svg" p-id="23237" xmlns:xlink="http://www.w3.org/1999/xlink" width="44" height="44"><defs><style type="text/css"></style></defs><path d="M737 647c-5.625-5.625-11.25-11.25-16.875-11.25-16.875 0-28.125 11.25-28.125 28.125 0 11.25 5.625 16.875 11.25 22.5l0 0 0 0c67.5 50.625 112.5 129.375 118.125 219.375l50.625 0C866.375 798.875 815.75 708.875 737 647M523.25 551.375c-101.25 0-185.625-84.375-185.625-185.625C332 258.875 416.375 174.5 523.25 174.5c101.25 0 185.625 84.375 185.625 185.625C708.875 467 624.5 551.375 523.25 551.375zM765.125 365.75c0-135-106.875-247.5-247.5-247.5C388.25 118.25 275.75 225.125 275.75 365.75c0 90 50.625 168.75 123.75 213.75C258.875 618.875 157.625 748.25 152 905.75l50.625 0C208.25 742.625 343.25 613.25 506.375 607.625l5.625 0c5.625 0 5.625 0 11.25 0C658.25 607.625 765.125 500.75 765.125 365.75z" p-id="23238" fill="#A9A9A9"></path></svg>