<?xml version="1.0" standalone="no"?><!DOCTYPE svg PUBLIC "-//W3C//DTD SVG 1.1//EN" "http://www.w3.org/Graphics/SVG/1.1/DTD/svg11.dtd"><svg t="1575015413512" class="icon" viewBox="0 0 1024 1024" version="1.1" xmlns="http://www.w3.org/2000/svg" p-id="1727" xmlns:xlink="http://www.w3.org/1999/xlink" width="200" height="200"><defs><style type="text/css"></style></defs><path d="M512 0a512 512 0 1 0 0 1024 512 512 0 0 0 0-1024z m304.128 525.789867c-6.9632 15.9744-20.2752 23.9616-40.072533 23.9616h-34.133334v182.545066c0 21.2992-6.9632 39.936-20.821333 55.978667a66.56 66.56 0 0 1-52.6336 23.9616H569.685333V603.613867l-0.341333-5.461334c-0.273067-2.730667-0.887467-4.3008-1.8432-5.051733a26.0096 26.0096 0 0 1-3.413333-2.935467 10.24 10.24 0 0 0-5.12-2.594133 38.434133 38.434133 0 0 0-7.850667-0.682667h-77.824a37.819733 37.819733 0 0 0-8.192 0.682667 12.0832 12.0832 0 0 0-5.256533 2.594133c-1.4336 1.2288-2.594133 2.116267-3.345067 2.935467-0.682667 0.682667-1.2288 2.389333-1.4336 5.051733a29.969067 29.969067 0 0 1-0.750933 5.461334 34.816 34.816 0 0 0 0 7.236266c0.2048 3.8912 0.341333 6.826667 0.341333 8.738134V812.373333H355.259733a66.833067 66.833067 0 0 1-52.292266-23.893333 82.1248 82.1248 0 0 1-21.162667-56.046933V549.751467h-34.133333c-19.319467 0-32.699733-7.9872-40.072534-23.9616-7.509333-16.930133-1.706667-35.157333 17.066667-54.613334L457.659733 234.154667c14.882133-15.018667 32.904533-22.528 54.203734-22.528 21.2992 0 39.594667 7.509333 54.8864 22.528l232.379733 237.090133c19.2512 19.387733 24.917333 37.546667 17.066667 54.545067z" fill="#1296db" p-id="1728"></path></svg>